<svg version="1.1" xmlns="http://www.w3.org/2000/svg" viewBox="0 0 2663 1222.75" width="5326" height="2445.5">
  <!-- svg-source:excalidraw -->
  
  <defs>
    <style class="style-fonts">
      @font-face {
        font-family: "Virgil";
        src: url("https://excalidraw.com/Virgil.woff2");
      }
      @font-face {
        font-family: "Cascadia";
        src: url("https://excalidraw.com/Cascadia.woff2");
      }
      @font-face {
        font-family: "Assistant";
        src: url("https://excalidraw.com/Assistant-Regular.woff2");
      }
    </style>
    
  </defs>
  <rect x="0" y="0" width="2663" height="1222.75" fill="#ffffff"></rect><g stroke-linecap="round" transform="translate(253.5 418.25) rotate(0 67.75 40.25)"><path d="M20.13 0 C43.42 -0.81, 65.37 -1.62, 115.38 0 M20.13 0 C57.43 -0.71, 96.26 0.38, 115.38 0 M115.38 0 C129.43 0.03, 136.14 7.05, 135.5 20.13 M115.38 0 C128.42 -0.6, 135.82 7.64, 135.5 20.13 M135.5 20.13 C137.02 33.07, 134.81 44.04, 135.5 60.38 M135.5 20.13 C135.3 31.53, 136.16 45.32, 135.5 60.38 M135.5 60.38 C136.05 72.99, 130.06 81.11, 115.38 80.5 M135.5 60.38 C136.12 74.77, 126.63 80.23, 115.38 80.5 M115.38 80.5 C83.89 80.53, 50.16 79.18, 20.13 80.5 M115.38 80.5 C95.09 80.59, 74.36 80.46, 20.13 80.5 M20.13 80.5 C6.41 82.25, -1.35 74.68, 0 60.38 M20.13 80.5 C5.34 82.34, -0.12 74.38, 0 60.38 M0 60.38 C0.34 52.63, -2.01 42.25, 0 20.13 M0 60.38 C-0.26 51.5, 0.41 40.27, 0 20.13 M0 20.13 C0.16 7.57, 6.18 -0.31, 20.13 0 M0 20.13 C1.6 5.57, 4.71 -1.67, 20.13 0" stroke="#1e1e1e" stroke-width="2" fill="none"></path></g><g transform="translate(262.4900588989258 446) rotate(0 58.75994110107422 12.5)"><text x="58.75994110107422" y="0" font-family="Virgil, Segoe UI Emoji" font-size="20px" fill="#1e1e1e" text-anchor="middle" style="white-space: pre;" direction="ltr" dominant-baseline="text-before-edge">Login screen</text></g><g stroke-linecap="round"><g transform="translate(390.5 461.4257201285236) rotate(0 56.30686971290521 -0.06945356300320782)"><path d="M0.64 0.05 C19.5 0.05, 95.08 1.17, 113.68 0.94 M-0.49 -0.97 C18.27 -1.36, 94.66 -0.67, 113.29 -0.61" stroke="#1e1e1e" stroke-width="2" fill="none"></path></g><g transform="translate(390.5 461.4257201285236) rotate(0 56.30686971290521 -0.06945356300320782)"><path d="M89.75 7.8 C97.76 6.59, 107.48 1.35, 113.29 -0.61 M89.75 7.8 C95.36 6.61, 98.51 4.29, 113.29 -0.61" stroke="#1e1e1e" stroke-width="2" fill="none"></path></g><g transform="translate(390.5 461.4257201285236) rotate(0 56.30686971290521 -0.06945356300320782)"><path d="M89.85 -9.3 C97.96 -4.7, 107.65 -4.13, 113.29 -0.61 M89.85 -9.3 C95.45 -7.03, 98.58 -5.89, 113.29 -0.61" stroke="#1e1e1e" stroke-width="2" fill="none"></path></g></g><mask></mask><g stroke-linecap="round" transform="translate(504 376.75) rotate(0 114 85)"><path d="M143.75 21.5 C165.27 39.16, 186.84 53.18, 199.25 64.5 M143.75 21.5 C164.46 38.12, 186.15 53.27, 199.25 64.5 M199.25 64.5 C228.18 84.7, 228.98 84.49, 199.25 107.5 M199.25 64.5 C227.51 87, 226.25 83.93, 199.25 107.5 M199.25 107.5 C175.63 122.72, 155.15 138.81, 143.75 148.5 M199.25 107.5 C182 118.42, 166.92 132.31, 143.75 148.5 M143.75 148.5 C116.82 171.29, 115.89 171.42, 86.25 148.5 M143.75 148.5 C112.96 171.25, 117.29 169.74, 86.25 148.5 M86.25 148.5 C67.47 132.33, 43.69 120.5, 28.75 107.5 M86.25 148.5 C73.69 139.45, 63.26 129.94, 28.75 107.5 M28.75 107.5 C1.17 85.58, -0.45 86.53, 28.75 64.5 M28.75 107.5 C-1.77 88.03, -2.24 86.65, 28.75 64.5 M28.75 64.5 C47.87 52.4, 62.89 39.2, 86.25 21.5 M28.75 64.5 C44.48 52.62, 60.08 41.31, 86.25 21.5 M86.25 21.5 C113.32 -1.2, 113.05 0.57, 143.75 21.5 M86.25 21.5 C117.11 -1.49, 112.8 1.14, 143.75 21.5" stroke="#1e1e1e" stroke-width="2" fill="none"></path></g><g transform="translate(569.0600509643555 424.25) rotate(0 48.93994903564453 37.5)"><text x="48.93994903564453" y="0" font-family="Virgil, Segoe UI Emoji" font-size="20px" fill="#1e1e1e" text-anchor="middle" style="white-space: pre;" direction="ltr" dominant-baseline="text-before-edge">Login </text><text x="48.93994903564453" y="25" font-family="Virgil, Segoe UI Emoji" font-size="20px" fill="#1e1e1e" text-anchor="middle" style="white-space: pre;" direction="ltr" dominant-baseline="text-before-edge">succeeded</text><text x="48.93994903564453" y="50" font-family="Virgil, Segoe UI Emoji" font-size="20px" fill="#1e1e1e" text-anchor="middle" style="white-space: pre;" direction="ltr" dominant-baseline="text-before-edge">?</text></g><g stroke-linecap="round"><g transform="translate(729.2897869056103 458.4818537227202) rotate(0 64.35510654719485 0.13407313863990566)"><path d="M-0.96 -0.88 C20.62 -0.78, 106.7 1.27, 128.36 1.35 M0.74 1.27 C22.22 0.99, 105.96 -0.08, 127.22 -0.2" stroke="#1e1e1e" stroke-width="2" fill="none"></path></g><g transform="translate(729.2897869056103 458.4818537227202) rotate(0 64.35510654719485 0.13407313863990566)"><path d="M103.81 8.58 C107.22 6.32, 115.43 5.49, 127.22 -0.2 M103.81 8.58 C110.19 6.71, 115.26 4.99, 127.22 -0.2" stroke="#1e1e1e" stroke-width="2" fill="none"></path></g><g transform="translate(729.2897869056103 458.4818537227202) rotate(0 64.35510654719485 0.13407313863990566)"><path d="M103.65 -8.52 C107.2 -7.17, 115.44 -4.4, 127.22 -0.2 M103.65 -8.52 C110.04 -6.25, 115.15 -3.83, 127.22 -0.2" stroke="#1e1e1e" stroke-width="2" fill="none"></path></g></g><mask></mask><g stroke-linecap="round" transform="translate(856.5 418.25) rotate(0 70.5 37)"><path d="M18.5 0 C59.07 1.73, 98.7 -0.15, 122.5 0 M18.5 0 C54.91 -0.09, 92.65 0.22, 122.5 0 M122.5 0 C135.3 -1.1, 141.03 7.49, 141 18.5 M122.5 0 C135.04 0.34, 138.71 6.09, 141 18.5 M141 18.5 C142.16 29.59, 142.52 42.2, 141 55.5 M141 18.5 C141.64 27.8, 140.93 37.99, 141 55.5 M141 55.5 C142.63 69.57, 134.01 74.18, 122.5 74 M141 55.5 C140.42 66.6, 133.74 72.22, 122.5 74 M122.5 74 C92.9 71.8, 61.14 74.32, 18.5 74 M122.5 74 C91.2 74.32, 58.37 75.05, 18.5 74 M18.5 74 C4.21 75.93, 1.46 67.27, 0 55.5 M18.5 74 C6.6 72.13, 1.51 67.68, 0 55.5 M0 55.5 C-1.58 48.57, -0.93 39.55, 0 18.5 M0 55.5 C-0.72 42.85, 0.67 27.87, 0 18.5 M0 18.5 C-0.28 5.8, 4.83 1.46, 18.5 0 M0 18.5 C-0.07 6.91, 7.11 1.47, 18.5 0" stroke="#1e1e1e" stroke-width="2" fill="none"></path></g><g transform="translate(876.0000534057617 442.75) rotate(0 50.99994659423828 12.5)"><text x="50.99994659423828" y="0" font-family="Virgil, Segoe UI Emoji" font-size="20px" fill="#1e1e1e" text-anchor="middle" style="white-space: pre;" direction="ltr" dominant-baseline="text-before-edge">All reviews</text></g><g stroke-linecap="round"><g transform="translate(922 489.75) rotate(0 -0.25 52.75)"><path d="M-0.57 -1.11 C-0.49 16.53, -0.11 87.28, -0.16 105.2 M1.33 0.92 C1.34 18.79, -0.4 89.31, -0.93 106.59" stroke="#1e1e1e" stroke-width="2" fill="none"></path></g><g transform="translate(922 489.75) rotate(0 -0.25 52.75)"><path d="M-8.85 82.87 C-8.88 89.33, -5.57 94.01, -0.93 106.59 M-8.85 82.87 C-5.91 91.63, -2.35 101.23, -0.93 106.59" stroke="#1e1e1e" stroke-width="2" fill="none"></path></g><g transform="translate(922 489.75) rotate(0 -0.25 52.75)"><path d="M8.25 83.33 C4 89.59, 3.1 94.16, -0.93 106.59 M8.25 83.33 C4.72 91.98, 1.8 101.4, -0.93 106.59" stroke="#1e1e1e" stroke-width="2" fill="none"></path></g></g><mask></mask><g stroke-linecap="round" transform="translate(846 601.75) rotate(0 73.25 43.5)"><path d="M21.75 0 C49.44 -1.17, 75.07 -1.97, 124.75 0 M21.75 0 C56.8 1.44, 91.39 0.22, 124.75 0 M124.75 0 C139.58 0.25, 147.35 8.16, 146.5 21.75 M124.75 0 C141.11 -0.2, 147.01 5.79, 146.5 21.75 M146.5 21.75 C145 36.91, 148.18 54.45, 146.5 65.25 M146.5 21.75 C146.79 38.43, 146.2 54.59, 146.5 65.25 M146.5 65.25 C147.53 78.19, 140.96 88.84, 124.75 87 M146.5 65.25 C145.92 81.34, 137.51 86.09, 124.75 87 M124.75 87 C100.41 84.73, 73.15 85.49, 21.75 87 M124.75 87 C85.98 86.74, 47.16 87.32, 21.75 87 M21.75 87 C7.16 86.05, 1.46 80.79, 0 65.25 M21.75 87 C9.31 88.26, 0.05 79.86, 0 65.25 M0 65.25 C0.31 54.19, -2.06 41.97, 0 21.75 M0 65.25 C-0.92 54.95, -0.74 43.43, 0 21.75 M0 21.75 C1.02 8.02, 8.57 -1.05, 21.75 0 M0 21.75 C0.61 7.96, 6.62 1.94, 21.75 0" stroke="#1e1e1e" stroke-width="2" fill="none"></path></g><g transform="translate(867.7200546264648 632.75) rotate(0 51.529945373535156 12.5)"><text x="51.529945373535156" y="0" font-family="Virgil, Segoe UI Emoji" font-size="20px" fill="#1e1e1e" text-anchor="middle" style="white-space: pre;" direction="ltr" dominant-baseline="text-before-edge">My reviews</text></g><g stroke-linecap="round"><g transform="translate(997.5 456.25) rotate(0 69.25 -0.25)"><path d="M0.87 0.62 C24.26 0.4, 116.67 -0.99, 139.61 -1.14 M-0.13 -0.1 C23.26 -0.19, 116.26 -0.15, 139.24 0.07" stroke="#1e1e1e" stroke-width="2" fill="none"></path></g></g><mask></mask><g stroke-linecap="round"><g transform="translate(1138.5 453.75) rotate(0 0 47.25)"><path d="M-0.77 -0.38 C-0.47 15.34, 0.91 77.69, 1.06 93.59 M1.03 -1.63 C1.32 14.28, 0.93 78.89, 0.67 94.65" stroke="#1e1e1e" stroke-width="2" fill="none"></path></g></g><mask></mask><g stroke-linecap="round"><g transform="translate(991 650.25) rotate(0 72.5 -1)"><path d="M0.89 0.53 C24.96 -0.02, 120.46 -2.75, 144.51 -3.13 M-0.1 -0.24 C23.76 -0.7, 119.2 -2.18, 143.31 -2.19" stroke="#1e1e1e" stroke-width="2" fill="none"></path></g></g><mask></mask><g stroke-linecap="round"><g transform="translate(1139 543.75) rotate(0 -1 51.25)"><path d="M0.24 -0.98 C0.1 15.97, -1.55 84.31, -1.93 101.54 M-1.09 1.12 C-1.29 18.21, -2.56 85.48, -2.84 102.57" stroke="#1e1e1e" stroke-width="2" fill="none"></path></g></g><mask></mask><g stroke-linecap="round"><g transform="translate(1138.5 543.75) rotate(0 54 -1)"><path d="M0.59 -0.71 C18.49 -1.2, 89.54 -2.14, 107.5 -2.35 M-0.55 1.53 C17.14 1.16, 88.24 -0.63, 106.29 -1" stroke="#1e1e1e" stroke-width="2" fill="none"></path></g><g transform="translate(1138.5 543.75) rotate(0 54 -1)"><path d="M83 8.09 C88.96 4.34, 96.73 2.97, 106.29 -1 M83 8.09 C89.84 5.42, 97.27 3.72, 106.29 -1" stroke="#1e1e1e" stroke-width="2" fill="none"></path></g><g transform="translate(1138.5 543.75) rotate(0 54 -1)"><path d="M82.61 -9.01 C88.77 -7.49, 96.66 -3.59, 106.29 -1 M82.61 -9.01 C89.6 -6.53, 97.14 -3.1, 106.29 -1" stroke="#1e1e1e" stroke-width="2" fill="none"></path></g></g><mask></mask><g stroke-linecap="round" transform="translate(1245 492.75) rotate(0 58.5 47.5)"><path d="M23.75 0 C38.7 -1.59, 56.12 -0.01, 93.25 0 M23.75 0 C49.79 -0.36, 77.94 0.64, 93.25 0 M93.25 0 C107.71 -0.72, 116.34 6.92, 117 23.75 M93.25 0 C109.58 1.28, 118.99 6.74, 117 23.75 M117 23.75 C116.19 40.01, 115.53 54.04, 117 71.25 M117 23.75 C117.49 36.99, 117.9 48.95, 117 71.25 M117 71.25 C115.56 86.75, 107.27 95.36, 93.25 95 M117 71.25 C115.41 88.16, 108.02 94, 93.25 95 M93.25 95 C73.4 95.66, 50.55 93.75, 23.75 95 M93.25 95 C68.21 94.77, 45.33 95.26, 23.75 95 M23.75 95 C7.64 95.05, -1.11 87.09, 0 71.25 M23.75 95 C10.05 93.52, 2.16 85.45, 0 71.25 M0 71.25 C-1.53 58.2, 0.74 42.26, 0 23.75 M0 71.25 C-0.69 55.68, -0.62 40.9, 0 23.75 M0 23.75 C0.36 8.27, 9.41 0.07, 23.75 0 M0 23.75 C-0.58 8.17, 6.06 -2.1, 23.75 0" stroke="#1e1e1e" stroke-width="2" fill="none"></path></g><g transform="translate(1265.7100448608398 515.25) rotate(0 37.789955139160156 25)"><text x="37.789955139160156" y="0" font-family="Virgil, Segoe UI Emoji" font-size="20px" fill="#1e1e1e" text-anchor="middle" style="white-space: pre;" direction="ltr" dominant-baseline="text-before-edge">Creqte </text><text x="37.789955139160156" y="25" font-family="Virgil, Segoe UI Emoji" font-size="20px" fill="#1e1e1e" text-anchor="middle" style="white-space: pre;" direction="ltr" dominant-baseline="text-before-edge">review</text></g><g stroke-linecap="round"><g transform="translate(915.5 686.75) rotate(0 -0.21231480650607182 40)"><path d="M0.34 0.17 C-0.05 13.55, -1.5 66.87, -1.56 80.04 M-0.95 -0.79 C-1.05 12.82, 0.49 68.12, 0.55 81.59" stroke="#1e1e1e" stroke-width="2" fill="none"></path></g><g transform="translate(915.5 686.75) rotate(0 -0.21231480650607182 40)"><path d="M-8.41 58.25 C-4.91 64.86, -1.85 75.92, 0.55 81.59 M-8.41 58.25 C-7.51 63.42, -4.72 68.61, 0.55 81.59" stroke="#1e1e1e" stroke-width="2" fill="none"></path></g><g transform="translate(915.5 686.75) rotate(0 -0.21231480650607182 40)"><path d="M8.69 57.96 C5.94 64.72, 2.75 75.89, 0.55 81.59 M8.69 57.96 C5.66 63.34, 4.52 68.6, 0.55 81.59" stroke="#1e1e1e" stroke-width="2" fill="none"></path></g></g><mask></mask><g stroke-linecap="round" transform="translate(867 773.25) rotate(0 44.75 34.5)"><path d="M17.25 0 C31.12 2.07, 41.59 -0.39, 72.25 0 M17.25 0 C28.21 -0.94, 38.6 -0.01, 72.25 0 M72.25 0 C84.9 1.62, 89.02 4.78, 89.5 17.25 M72.25 0 C84.61 -1.23, 90.98 7.16, 89.5 17.25 M89.5 17.25 C89.73 27.99, 90.77 35.2, 89.5 51.75 M89.5 17.25 C89.42 28.21, 88.86 40.61, 89.5 51.75 M89.5 51.75 C89.45 64.29, 85.3 69.17, 72.25 69 M89.5 51.75 C91.3 63.12, 83.62 70.6, 72.25 69 M72.25 69 C54.7 70.43, 39.58 68.11, 17.25 69 M72.25 69 C60.92 68.21, 49.16 67.74, 17.25 69 M17.25 69 C7.33 69.17, -1.17 62.68, 0 51.75 M17.25 69 C4.94 67.91, -1.16 63.07, 0 51.75 M0 51.75 C-0.55 38.54, -0.69 24.6, 0 17.25 M0 51.75 C0.82 44.33, 0.59 37.76, 0 17.25 M0 17.25 C-0.19 5.14, 4.23 0.82, 17.25 0 M0 17.25 C-0.05 5.21, 4.64 0.24, 17.25 0" stroke="#1e1e1e" stroke-width="2" fill="none"></path></g><g transform="translate(876.2000427246094 782.75) rotate(0 35.549957275390625 25)"><text x="35.549957275390625" y="0" font-family="Virgil, Segoe UI Emoji" font-size="20px" fill="#1e1e1e" text-anchor="middle" style="white-space: pre;" direction="ltr" dominant-baseline="text-before-edge">Update</text><text x="35.549957275390625" y="25" font-family="Virgil, Segoe UI Emoji" font-size="20px" fill="#1e1e1e" text-anchor="middle" style="white-space: pre;" direction="ltr" dominant-baseline="text-before-edge">review</text></g><g stroke-linecap="round"><g transform="translate(842.5 645.25) rotate(0 -46.75 1)"><path d="M-0.1 -1.08 C-15.88 -0.99, -78.19 0.62, -93.65 1.12 M-1.62 0.96 C-17.66 1.14, -79.4 1.82, -94.67 2.19" stroke="#1e1e1e" stroke-width="2" fill="none"></path></g><g transform="translate(842.5 645.25) rotate(0 -46.75 1)"><path d="M-71.32 -6.75 C-82.12 -3.55, -90.81 1.26, -94.67 2.19 M-71.32 -6.75 C-78.28 -4.61, -84.9 -1.49, -94.67 2.19" stroke="#1e1e1e" stroke-width="2" fill="none"></path></g><g transform="translate(842.5 645.25) rotate(0 -46.75 1)"><path d="M-71.04 10.35 C-82.02 6.93, -90.82 5.14, -94.67 2.19 M-71.04 10.35 C-77.94 7.5, -84.65 5.63, -94.67 2.19" stroke="#1e1e1e" stroke-width="2" fill="none"></path></g></g><mask></mask><g stroke-linecap="round" transform="translate(638 604.25) rotate(0 53.75 42.75)"><path d="M21.38 0 C35.97 -1.13, 48.69 0.84, 86.13 0 M21.38 0 C46.09 0.95, 71.72 0.82, 86.13 0 M86.13 0 C100.12 0.81, 107.54 6.46, 107.5 21.38 M86.13 0 C99.35 1.63, 107.89 5.41, 107.5 21.38 M107.5 21.38 C109.33 32.15, 106.68 44.09, 107.5 64.13 M107.5 21.38 C107.77 37.44, 108 54.14, 107.5 64.13 M107.5 64.13 C106.25 79.4, 101.18 83.85, 86.13 85.5 M107.5 64.13 C107.79 78.88, 98.19 86.46, 86.13 85.5 M86.13 85.5 C67.76 87.37, 48.39 85.23, 21.38 85.5 M86.13 85.5 C71.12 84.61, 53.89 84.85, 21.38 85.5 M21.38 85.5 C8.62 86.94, 1.68 79.14, 0 64.13 M21.38 85.5 C8.47 83.97, 1.46 77.35, 0 64.13 M0 64.13 C0.66 47.15, 1.71 30.38, 0 21.38 M0 64.13 C-0.84 49.26, -0.25 35.24, 0 21.38 M0 21.38 C0.5 5.74, 8.32 1.09, 21.38 0 M0 21.38 C2.25 4.84, 8.38 -2.22, 21.38 0" stroke="#1e1e1e" stroke-width="2" fill="none"></path></g><g transform="translate(654.2600402832031 622) rotate(0 37.489959716796875 25)"><text x="37.489959716796875" y="0" font-family="Virgil, Segoe UI Emoji" font-size="20px" fill="#1e1e1e" text-anchor="middle" style="white-space: pre;" direction="ltr" dominant-baseline="text-before-edge">Delete </text><text x="37.489959716796875" y="25" font-family="Virgil, Segoe UI Emoji" font-size="20px" fill="#1e1e1e" text-anchor="middle" style="white-space: pre;" direction="ltr" dominant-baseline="text-before-edge">review</text></g><g stroke-linecap="round" transform="translate(1203 735.25) rotate(0 109.75 110)"><path d="M137.5 27.75 C150.99 39.53, 163.94 53.03, 192 83.25 M137.5 27.75 C160.5 48.71, 181.52 70.7, 192 83.25 M192 83.25 C217.86 112.22, 217.85 112.24, 192 138.75 M192 83.25 C218.55 108.73, 219.03 109.95, 192 138.75 M192 138.75 C178.14 152.36, 161.59 168.69, 137.5 192.25 M192 138.75 C171.24 159.27, 149.95 181.71, 137.5 192.25 M137.5 192.25 C111.43 218.46, 109.72 218.4, 82.5 192.25 M137.5 192.25 C108.82 218.7, 107.91 221.05, 82.5 192.25 M82.5 192.25 C69.91 179.49, 57.11 167.01, 27.5 138.75 M82.5 192.25 C70.51 181.61, 60.6 169.96, 27.5 138.75 M27.5 138.75 C-0.88 109.99, 0.04 109.2, 27.5 83.25 M27.5 138.75 C-2.23 109.01, 0.8 109.3, 27.5 83.25 M27.5 83.25 C47.28 66.4, 64.03 47.86, 82.5 27.75 M27.5 83.25 C41.72 67.7, 56.93 51.67, 82.5 27.75 M82.5 27.75 C108.19 -1.92, 111.17 -1.67, 137.5 27.75 M82.5 27.75 C108.62 2.25, 111.67 1.39, 137.5 27.75" stroke="#1e1e1e" stroke-width="2" fill="none"></path></g><g transform="translate(1266.9850540161133 795.25) rotate(0 45.88994598388672 50)"><text x="45.88994598388672" y="0" font-family="Virgil, Segoe UI Emoji" font-size="20px" fill="#1e1e1e" text-anchor="middle" style="white-space: pre;" direction="ltr" dominant-baseline="text-before-edge">Form </text><text x="45.88994598388672" y="25" font-family="Virgil, Segoe UI Emoji" font-size="20px" fill="#1e1e1e" text-anchor="middle" style="white-space: pre;" direction="ltr" dominant-baseline="text-before-edge">validated</text><text x="45.88994598388672" y="50" font-family="Virgil, Segoe UI Emoji" font-size="20px" fill="#1e1e1e" text-anchor="middle" style="white-space: pre;" direction="ltr" dominant-baseline="text-before-edge">?</text><text x="45.88994598388672" y="75" font-family="Virgil, Segoe UI Emoji" font-size="20px" fill="#1e1e1e" text-anchor="middle" style="white-space: pre;" direction="ltr" dominant-baseline="text-before-edge"></text></g><g stroke-linecap="round"><g transform="translate(1313.5 944.75) rotate(0 -1 43.75)"><path d="M0.11 -0.57 C-0.38 13.65, -2.4 72.02, -2.9 86.51 M-1.29 1.75 C-1.41 16.59, -0.79 73.3, -0.66 87.53" stroke="#1e1e1e" stroke-width="2" fill="none"></path></g><g transform="translate(1313.5 944.75) rotate(0 -1 43.75)"><path d="M-9.44 64.12 C-7.49 69.72, -5.52 76.83, -0.66 87.53 M-9.44 64.12 C-7.31 67.98, -5.56 73.47, -0.66 87.53" stroke="#1e1e1e" stroke-width="2" fill="none"></path></g><g transform="translate(1313.5 944.75) rotate(0 -1 43.75)"><path d="M7.66 63.95 C4.42 69.62, 1.2 76.78, -0.66 87.53 M7.66 63.95 C6.26 67.93, 4.48 73.45, -0.66 87.53" stroke="#1e1e1e" stroke-width="2" fill="none"></path></g></g><mask></mask><g stroke-linecap="round" transform="translate(1282 1039.75) rotate(0 31.25 18.75)"><path d="M9.38 0 C25.11 -0.67, 42.51 -1.93, 53.13 0 M9.38 0 C20.07 -0.42, 29.37 0.03, 53.13 0 M53.13 0 C58.64 -0.44, 63.38 3.9, 62.5 9.38 M53.13 0 C57.31 -0.27, 63.08 4.46, 62.5 9.38 M62.5 9.38 C61.77 13.38, 63.63 20.75, 62.5 28.13 M62.5 9.38 C62.41 15.46, 62.56 20.68, 62.5 28.13 M62.5 28.13 C61.76 36.03, 59.54 38.77, 53.13 37.5 M62.5 28.13 C60.8 34.88, 60.36 37.77, 53.13 37.5 M53.13 37.5 C36.68 35.83, 23.13 37.39, 9.38 37.5 M53.13 37.5 C42.83 38.75, 30.71 37.43, 9.38 37.5 M9.38 37.5 C1.49 39.38, 0.79 34.18, 0 28.13 M9.38 37.5 C4.96 39.52, -0.87 36.24, 0 28.13 M0 28.13 C-0.36 22.97, 0.81 15.08, 0 9.38 M0 28.13 C0.84 21, 0.04 13.15, 0 9.38 M0 9.38 C-1.13 4.33, 4.84 -1.37, 9.38 0 M0 9.38 C-1.63 4.01, 3.77 0.67, 9.38 0" stroke="#1e1e1e" stroke-width="2" fill="none"></path></g><g transform="translate(1288.0700302124023 1046) rotate(0 25.179969787597656 12.5)"><text x="25.179969787597656" y="0" font-family="Virgil, Segoe UI Emoji" font-size="20px" fill="#1e1e1e" text-anchor="middle" style="white-space: pre;" direction="ltr" dominant-baseline="text-before-edge">Error</text></g><g stroke-linecap="round"><g transform="translate(1415 839.25) rotate(0 60.140152768495454 -0.518300395588426)"><path d="M-0.04 0.23 C19.83 -0.03, 99.86 -1.31, 120.04 -1.66 M-1.52 -0.7 C18.1 -0.8, 98.61 -0.4, 118.96 -0.45" stroke="#1e1e1e" stroke-width="2" fill="none"></path></g><g transform="translate(1415 839.25) rotate(0 60.140152768495454 -0.518300395588426)"><path d="M95.46 8.06 C104.46 4.54, 111.66 3.03, 118.96 -0.45 M95.46 8.06 C101.46 6.23, 106.05 3.4, 118.96 -0.45" stroke="#1e1e1e" stroke-width="2" fill="none"></path></g><g transform="translate(1415 839.25) rotate(0 60.140152768495454 -0.518300395588426)"><path d="M95.48 -9.04 C104.46 -6.29, 111.65 -1.53, 118.96 -0.45 M95.48 -9.04 C101.61 -6.93, 106.2 -5.83, 118.96 -0.45" stroke="#1e1e1e" stroke-width="2" fill="none"></path></g></g><mask></mask><g stroke-linecap="round" transform="translate(1987.5 806.25) rotate(0 70 42.5)"><path d="M21.25 0 C53.08 0.66, 87.5 -1.34, 118.75 0 M21.25 0 C39.79 0.24, 60.13 0.1, 118.75 0 M118.75 0 C133.5 -0.35, 138.1 6.6, 140 21.25 M118.75 0 C131.01 1.7, 138.68 6.31, 140 21.25 M140 21.25 C139.69 37.79, 139.39 54.66, 140 63.75 M140 21.25 C140.71 34.64, 140.85 47.39, 140 63.75 M140 63.75 C140.68 77.18, 133.76 83.54, 118.75 85 M140 63.75 C140.71 78.6, 134.54 84, 118.75 85 M118.75 85 C78.86 85.37, 41.08 84.85, 21.25 85 M118.75 85 C80.57 85.84, 43.35 85.7, 21.25 85 M21.25 85 C6.28 84.25, -1.91 75.99, 0 63.75 M21.25 85 C8.65 83.93, -1.63 78.58, 0 63.75 M0 63.75 C-1.01 50.86, 0.83 41.21, 0 21.25 M0 63.75 C-0.03 51.33, -0.9 39.69, 0 21.25 M0 21.25 C1.31 7.7, 7.82 0.95, 21.25 0 M0 21.25 C-1.6 6.11, 5.89 0.99, 21.25 0" stroke="#1e1e1e" stroke-width="2" fill="none"></path></g><g transform="translate(2004.9200592041016 811.25) rotate(0 52.57994079589844 37.5)"><text x="52.57994079589844" y="0" font-family="Virgil, Segoe UI Emoji" font-size="20px" fill="#1e1e1e" text-anchor="middle" style="white-space: pre;" direction="ltr" dominant-baseline="text-before-edge">Email to </text><text x="52.57994079589844" y="25" font-family="Virgil, Segoe UI Emoji" font-size="20px" fill="#1e1e1e" text-anchor="middle" style="white-space: pre;" direction="ltr" dominant-baseline="text-before-edge">admin and </text><text x="52.57994079589844" y="50" font-family="Virgil, Segoe UI Emoji" font-size="20px" fill="#1e1e1e" text-anchor="middle" style="white-space: pre;" direction="ltr" dominant-baseline="text-before-edge">user</text></g><g stroke-linecap="round"><g transform="translate(2129.5 847.25) rotate(0 51.25 -0.5)"><path d="M1.04 0.87 C18.15 0.58, 85.87 -1.42, 102.86 -1.71 M0.13 0.28 C17.09 0.13, 85.04 -0.59, 102.11 -0.54" stroke="#1e1e1e" stroke-width="2" fill="none"></path></g><g transform="translate(2129.5 847.25) rotate(0 51.25 -0.5)"><path d="M78.66 8.12 C87.59 5.76, 92.46 3.25, 102.11 -0.54 M78.66 8.12 C86.46 4.45, 93.67 3.25, 102.11 -0.54" stroke="#1e1e1e" stroke-width="2" fill="none"></path></g><g transform="translate(2129.5 847.25) rotate(0 51.25 -0.5)"><path d="M78.57 -8.98 C87.54 -5.88, 92.43 -2.93, 102.11 -0.54 M78.57 -8.98 C86.3 -7.27, 93.52 -3.09, 102.11 -0.54" stroke="#1e1e1e" stroke-width="2" fill="none"></path></g></g><mask></mask><g stroke-linecap="round" transform="translate(2229 735.25) rotate(0 104.25 110)"><path d="M131.25 27.75 C150.82 48.96, 170.13 69.57, 182.25 83.25 M131.25 27.75 C147.77 45.84, 164.71 65, 182.25 83.25 M182.25 83.25 C207.69 111.64, 210.42 109.51, 182.25 138.75 M182.25 83.25 C210.77 110.88, 209.71 110.19, 182.25 138.75 M182.25 138.75 C163.98 158.92, 148.12 175.58, 131.25 192.25 M182.25 138.75 C163.42 159.23, 145.36 178.98, 131.25 192.25 M131.25 192.25 C105.18 221.82, 103.59 221.86, 78.75 192.25 M131.25 192.25 C105.42 221.42, 103.81 221.67, 78.75 192.25 M78.75 192.25 C63.92 177.56, 54.78 163.94, 26.25 138.75 M78.75 192.25 C63.97 177.17, 51.6 163.77, 26.25 138.75 M26.25 138.75 C-1.23 111.49, -0.08 110.97, 26.25 83.25 M26.25 138.75 C-0.42 112.18, 1.7 109.68, 26.25 83.25 M26.25 83.25 C46.4 66.13, 62.56 44.37, 78.75 27.75 M26.25 83.25 C37.52 70.77, 48.95 60.44, 78.75 27.75 M78.75 27.75 C103.88 -1.04, 104.96 -0.46, 131.25 27.75 M78.75 27.75 C104.35 2.2, 104.15 -0.4, 131.25 27.75" stroke="#1e1e1e" stroke-width="2" fill="none"></path></g><g transform="translate(2287.2250595092773 807.75) rotate(0 45.899940490722656 37.5)"><text x="45.899940490722656" y="0" font-family="Virgil, Segoe UI Emoji" font-size="20px" fill="#1e1e1e" text-anchor="middle" style="white-space: pre;" direction="ltr" dominant-baseline="text-before-edge">Admin </text><text x="45.899940490722656" y="25" font-family="Virgil, Segoe UI Emoji" font-size="20px" fill="#1e1e1e" text-anchor="middle" style="white-space: pre;" direction="ltr" dominant-baseline="text-before-edge">approval </text><text x="45.899940490722656" y="50" font-family="Virgil, Segoe UI Emoji" font-size="20px" fill="#1e1e1e" text-anchor="middle" style="white-space: pre;" direction="ltr" dominant-baseline="text-before-edge">?</text></g><g stroke-linecap="round"><g transform="translate(2433.5 843.25) rotate(0 56 -0.10363649758744486)"><path d="M-0.26 -0.8 C18.27 -0.7, 93.24 -0.63, 111.87 -0.39 M1.8 1.39 C20.11 1.77, 92.73 1.5, 110.85 1.05" stroke="#1e1e1e" stroke-width="2" fill="none"></path></g><g transform="translate(2433.5 843.25) rotate(0 56 -0.10363649758744486)"><path d="M87.46 9.89 C94.47 6.59, 103.78 2.89, 110.85 1.05 M87.46 9.89 C95.11 6.79, 104.48 2.75, 110.85 1.05" stroke="#1e1e1e" stroke-width="2" fill="none"></path></g><g transform="translate(2433.5 843.25) rotate(0 56 -0.10363649758744486)"><path d="M87.25 -7.21 C94.19 -4.46, 103.57 -2.11, 110.85 1.05 M87.25 -7.21 C94.99 -4.02, 104.44 -1.78, 110.85 1.05" stroke="#1e1e1e" stroke-width="2" fill="none"></path></g></g><mask></mask><g stroke-linecap="round" transform="translate(2546.5 761.75) rotate(0 53.25 80)"><path d="M26.63 0 C45.02 -0.99, 62.16 -1.28, 79.88 0 M26.63 0 C40.18 0.03, 54.1 0.21, 79.88 0 M79.88 0 C95.63 1.36, 106.59 8.61, 106.5 26.63 M79.88 0 C95.59 0.93, 107.18 6.9, 106.5 26.63 M106.5 26.63 C107.4 56.28, 105.15 84.27, 106.5 133.38 M106.5 26.63 C106.14 58.06, 106.63 88.99, 106.5 133.38 M106.5 133.38 C104.57 150.39, 99.04 158.5, 79.88 160 M106.5 133.38 C106.21 152.54, 97.3 160.57, 79.88 160 M79.88 160 C62.15 159.76, 41.68 158.98, 26.63 160 M79.88 160 C66.51 160.14, 53.67 160.08, 26.63 160 M26.63 160 C7.69 158.21, -1.65 152.77, 0 133.38 M26.63 160 C9.52 161.44, -1.29 148.89, 0 133.38 M0 133.38 C-2.13 108.12, -1.58 82.62, 0 26.63 M0 133.38 C0.06 94.61, 0.4 54.64, 0 26.63 M0 26.63 C0.86 9.33, 7.74 1.64, 26.63 0 M0 26.63 C1.62 10.13, 7.74 -1.72, 26.63 0" stroke="#1e1e1e" stroke-width="2" fill="none"></path></g><g transform="translate(2551.840057373047 766.75) rotate(0 47.909942626953125 75)"><text x="47.909942626953125" y="0" font-family="Virgil, Segoe UI Emoji" font-size="20px" fill="#1e1e1e" text-anchor="middle" style="white-space: pre;" direction="ltr" dominant-baseline="text-before-edge">Send </text><text x="47.909942626953125" y="25" font-family="Virgil, Segoe UI Emoji" font-size="20px" fill="#1e1e1e" text-anchor="middle" style="white-space: pre;" direction="ltr" dominant-baseline="text-before-edge">email </text><text x="47.909942626953125" y="50" font-family="Virgil, Segoe UI Emoji" font-size="20px" fill="#1e1e1e" text-anchor="middle" style="white-space: pre;" direction="ltr" dominant-baseline="text-before-edge">back to </text><text x="47.909942626953125" y="75" font-family="Virgil, Segoe UI Emoji" font-size="20px" fill="#1e1e1e" text-anchor="middle" style="white-space: pre;" direction="ltr" dominant-baseline="text-before-edge">user and </text><text x="47.909942626953125" y="100" font-family="Virgil, Segoe UI Emoji" font-size="20px" fill="#1e1e1e" text-anchor="middle" style="white-space: pre;" direction="ltr" dominant-baseline="text-before-edge">add </text><text x="47.909942626953125" y="125" font-family="Virgil, Segoe UI Emoji" font-size="20px" fill="#1e1e1e" text-anchor="middle" style="white-space: pre;" direction="ltr" dominant-baseline="text-before-edge">review</text></g><g stroke-linecap="round" transform="translate(640.5 188.75) rotate(0 92.5 41.75)"><path d="M20.88 0 C62.95 0.73, 101.46 -0.27, 164.13 0 M20.88 0 C53.76 1.53, 89.06 1.28, 164.13 0 M164.13 0 C178.4 -0.43, 184.98 5.59, 185 20.88 M164.13 0 C176.81 0.7, 184.42 7.96, 185 20.88 M185 20.88 C184.12 33.28, 183.11 48.45, 185 62.63 M185 20.88 C184.07 32.45, 185.03 43.69, 185 62.63 M185 62.63 C183.64 75.88, 176.13 85.02, 164.13 83.5 M185 62.63 C183.28 78.82, 175.93 85.67, 164.13 83.5 M164.13 83.5 C113.3 86.2, 63.48 85.55, 20.88 83.5 M164.13 83.5 C110.73 84.21, 59.28 83.66, 20.88 83.5 M20.88 83.5 C5.02 85.14, 0.51 76.35, 0 62.63 M20.88 83.5 C5.6 82.31, -0.55 75.14, 0 62.63 M0 62.63 C-1.07 46.93, -0.27 31.49, 0 20.88 M0 62.63 C-0.51 48.84, -0.42 37.22, 0 20.88 M0 20.88 C1.32 8.84, 5.74 1.6, 20.88 0 M0 20.88 C1.91 9.19, 5.93 -0.27, 20.88 0" stroke="#1e1e1e" stroke-width="2" fill="none"></path></g><g transform="translate(653.710090637207 205.5) rotate(0 79.28990936279297 25)"><text x="79.28990936279297" y="0" font-family="Virgil, Segoe UI Emoji" font-size="20px" fill="#1e1e1e" text-anchor="middle" style="white-space: pre;" direction="ltr" dominant-baseline="text-before-edge">Reviews pending </text><text x="79.28990936279297" y="25" font-family="Virgil, Segoe UI Emoji" font-size="20px" fill="#1e1e1e" text-anchor="middle" style="white-space: pre;" direction="ltr" dominant-baseline="text-before-edge">approval</text></g><g transform="translate(768 429.75) rotate(0 16.059982299804688 12.5)"><text x="0" y="0" font-family="Virgil, Segoe UI Emoji" font-size="20px" fill="#1e1e1e" text-anchor="start" style="white-space: pre;" direction="ltr" dominant-baseline="text-before-edge">Yes</text></g><g stroke-linecap="round" transform="translate(10 418.75) rotate(0 51.75 37.5)"><path d="M18.75 0 C42.35 -1.61, 69.02 -1.63, 84.75 0 M18.75 0 C33.03 1.01, 44.74 1.19, 84.75 0 M84.75 0 C98.75 0.32, 102.86 7.63, 103.5 18.75 M84.75 0 C96.44 -0.93, 105.79 4.38, 103.5 18.75 M103.5 18.75 C105.44 28.08, 104.27 41.08, 103.5 56.25 M103.5 18.75 C102.5 29.59, 104.01 42.78, 103.5 56.25 M103.5 56.25 C102.68 68.95, 98.24 73.67, 84.75 75 M103.5 56.25 C101.46 67.31, 97.96 73.62, 84.75 75 M84.75 75 C63.99 75.78, 42.62 73.93, 18.75 75 M84.75 75 C60.84 74.92, 35.93 75.11, 18.75 75 M18.75 75 C5.25 75.04, 1.24 68.61, 0 56.25 M18.75 75 C5.34 73.64, 2.26 68.43, 0 56.25 M0 56.25 C-0.18 48.57, 0.46 39.77, 0 18.75 M0 56.25 C-0.58 44.55, 0.13 32.99, 0 18.75 M0 18.75 C1.01 5.62, 7.84 1.63, 18.75 0 M0 18.75 C0.62 7.16, 4.63 0.9, 18.75 0" stroke="#ffffff" stroke-width="2" fill="none"></path></g><g stroke-linecap="round" transform="translate(77.5 417.75) rotate(0 55.5 39.25)"><path d="M19.63 0 C41.04 0.49, 64.41 -1.25, 91.38 0 M19.63 0 C40.63 0.29, 61.43 0.8, 91.38 0 M91.38 0 C103.52 -1.24, 110.04 7.62, 111 19.63 M91.38 0 C106.13 0.17, 109.38 8.11, 111 19.63 M111 19.63 C111.5 31.43, 110.93 43.75, 111 58.88 M111 19.63 C110.57 30.07, 111.86 40.03, 111 58.88 M111 58.88 C111.62 73.68, 104.56 76.99, 91.38 78.5 M111 58.88 C110.53 72.88, 102.31 76.26, 91.38 78.5 M91.38 78.5 C75.72 76.48, 54.85 76.76, 19.63 78.5 M91.38 78.5 C69.57 79.17, 47.35 78.36, 19.63 78.5 M19.63 78.5 C5.62 78.05, 0.98 73.67, 0 58.88 M19.63 78.5 C4.94 78.05, 0.15 73.49, 0 58.88 M0 58.88 C-0.41 48.77, -2.05 41.9, 0 19.63 M0 58.88 C0.11 51.33, 0.75 42.03, 0 19.63 M0 19.63 C-0.34 8.34, 6.55 1.64, 19.63 0 M0 19.63 C1.66 7.03, 8.29 1.84, 19.63 0" stroke="#1e1e1e" stroke-width="2" fill="none"></path></g><g transform="translate(104.65003204345703 444.5) rotate(0 28.34996795654297 12.5)"><text x="28.34996795654297" y="0" font-family="Virgil, Segoe UI Emoji" font-size="20px" fill="#1e1e1e" text-anchor="middle" style="white-space: pre;" direction="ltr" dominant-baseline="text-before-edge">Start</text></g><g stroke-linecap="round"><g transform="translate(189.5 455.83002940021606) rotate(0 30.5 0.6627310758893827)"><path d="M0.44 0.44 C10.56 0.87, 49.64 1.82, 59.82 2.13 M-0.79 -0.38 C9.76 -0.24, 51.61 0.29, 61.92 0.43" stroke="#1e1e1e" stroke-width="2" fill="none"></path></g><g transform="translate(189.5 455.83002940021606) rotate(0 30.5 0.6627310758893827)"><path d="M38.32 8.68 C44.39 4.78, 50.29 5.78, 61.92 0.43 M38.32 8.68 C46.84 5.05, 56.11 2.96, 61.92 0.43" stroke="#1e1e1e" stroke-width="2" fill="none"></path></g><g transform="translate(189.5 455.83002940021606) rotate(0 30.5 0.6627310758893827)"><path d="M38.54 -8.42 C44.49 -8.48, 50.35 -3.63, 61.92 0.43 M38.54 -8.42 C46.87 -5.59, 56.07 -1.22, 61.92 0.43" stroke="#1e1e1e" stroke-width="2" fill="none"></path></g></g><mask></mask><g stroke-linecap="round"><g transform="translate(622.5 543.25) rotate(0 -154.75 14.75)"><path d="M0.26 0.32 C-4.04 12.98, 23.62 62.26, -25.96 74.84 C-75.54 87.43, -249.9 96.27, -297.22 75.83 C-344.53 55.38, -307.84 -27.43, -309.84 -47.84 M-1.06 -0.55 C-5.45 12.34, 22.32 63.19, -26.62 76.04 C-75.56 88.88, -247.51 97.02, -294.7 76.53 C-341.89 56.04, -307.13 -26.53, -309.76 -46.91" stroke="#1e1e1e" stroke-width="2" fill="none"></path></g><g transform="translate(622.5 543.25) rotate(0 -154.75 14.75)"><path d="M-304.6 -22.45 C-305.31 -28.53, -308.42 -37.61, -309.76 -46.91 M-304.6 -22.45 C-305.31 -26.67, -307.13 -31.51, -309.76 -46.91" stroke="#1e1e1e" stroke-width="2" fill="none"></path></g><g transform="translate(622.5 543.25) rotate(0 -154.75 14.75)"><path d="M-321.53 -24.85 C-317.43 -30.28, -315.7 -38.68, -309.76 -46.91 M-321.53 -24.85 C-318.83 -28.54, -317.22 -32.89, -309.76 -46.91" stroke="#1e1e1e" stroke-width="2" fill="none"></path></g></g><mask></mask><g transform="translate(649 557.75) rotate(0 11.979988098144531 12.5)"><text x="0" y="0" font-family="Virgil, Segoe UI Emoji" font-size="20px" fill="#1e1e1e" text-anchor="start" style="white-space: pre;" direction="ltr" dominant-baseline="text-before-edge">No</text></g><g transform="translate(1333 982.25) rotate(0 11.979988098144531 12.5)"><text x="0" y="0" font-family="Virgil, Segoe UI Emoji" font-size="20px" fill="#1e1e1e" text-anchor="start" style="white-space: pre;" direction="ltr" dominant-baseline="text-before-edge">No</text></g><g transform="translate(1447 807.25) rotate(0 16.059982299804688 12.5)"><text x="0" y="0" font-family="Virgil, Segoe UI Emoji" font-size="20px" fill="#1e1e1e" text-anchor="start" style="white-space: pre;" direction="ltr" dominant-baseline="text-before-edge">Yes</text></g><g stroke-linecap="round"><g transform="translate(2333 949.25) rotate(0 0.25 48.25)"><path d="M-0.75 0.3 C-0.67 16.31, 0.43 80.18, 0.68 96.4 M1.05 -0.59 C0.97 15.59, -0.02 81.81, -0.18 97.89" stroke="#1e1e1e" stroke-width="2" fill="none"></path></g><g transform="translate(2333 949.25) rotate(0 0.25 48.25)"><path d="M-8.43 74.29 C-5.27 82.09, -3.32 89.64, -0.18 97.89 M-8.43 74.29 C-5.97 84.1, -2.1 92.31, -0.18 97.89" stroke="#1e1e1e" stroke-width="2" fill="none"></path></g><g transform="translate(2333 949.25) rotate(0 0.25 48.25)"><path d="M8.67 74.51 C6.43 82.13, 2.98 89.61, -0.18 97.89 M8.67 74.51 C4.37 84.35, 1.49 92.47, -0.18 97.89" stroke="#1e1e1e" stroke-width="2" fill="none"></path></g></g><mask></mask><g transform="translate(2467.5 807.25) rotate(0 16.059982299804688 12.5)"><text x="0" y="0" font-family="Virgil, Segoe UI Emoji" font-size="20px" fill="#1e1e1e" text-anchor="start" style="white-space: pre;" direction="ltr" dominant-baseline="text-before-edge">Yes</text></g><g transform="translate(2358.5 996.25) rotate(0 11.979988098144531 25)"><text x="0" y="0" font-family="Virgil, Segoe UI Emoji" font-size="20px" fill="#1e1e1e" text-anchor="start" style="white-space: pre;" direction="ltr" dominant-baseline="text-before-edge">No</text><text x="0" y="25" font-family="Virgil, Segoe UI Emoji" font-size="20px" fill="#1e1e1e" text-anchor="start" style="white-space: pre;" direction="ltr" dominant-baseline="text-before-edge"></text></g><g stroke-linecap="round" transform="translate(2286.75 1052.75) rotate(0 53.25 80)"><path d="M26.63 0 C45.09 -2.3, 64.39 1.01, 79.88 0 M26.63 0 C42.43 1.29, 57.31 1.44, 79.88 0 M79.88 0 C98.32 -0.12, 106.06 10.44, 106.5 26.63 M79.88 0 C97.45 0.41, 105.96 10.25, 106.5 26.63 M106.5 26.63 C107.57 54.9, 104.63 83.8, 106.5 133.38 M106.5 26.63 C108.17 54.25, 107.96 80.93, 106.5 133.38 M106.5 133.38 C108.35 152.9, 95.78 161.43, 79.88 160 M106.5 133.38 C104.97 150.54, 98.39 160.47, 79.88 160 M79.88 160 C66.58 158.18, 52.62 159.61, 26.63 160 M79.88 160 C60.97 159.23, 44.52 159.64, 26.63 160 M26.63 160 C8.41 159.07, 1.26 152.91, 0 133.38 M26.63 160 C10.79 160.16, -0.44 152, 0 133.38 M0 133.38 C-0.15 98.3, 0.7 66.32, 0 26.63 M0 133.38 C1.34 101.12, 0.8 70.96, 0 26.63 M0 26.63 C1.32 7.56, 6.96 -1.54, 26.63 0 M0 26.63 C-1.02 7.23, 10.22 0.6, 26.63 0" stroke="#1e1e1e" stroke-width="2" fill="none"></path></g><g transform="translate(2292.090057373047 1057.75) rotate(0 47.909942626953125 75)"><text x="47.909942626953125" y="0" font-family="Virgil, Segoe UI Emoji" font-size="20px" fill="#1e1e1e" text-anchor="middle" style="white-space: pre;" direction="ltr" dominant-baseline="text-before-edge">Send </text><text x="47.909942626953125" y="25" font-family="Virgil, Segoe UI Emoji" font-size="20px" fill="#1e1e1e" text-anchor="middle" style="white-space: pre;" direction="ltr" dominant-baseline="text-before-edge">email </text><text x="47.909942626953125" y="50" font-family="Virgil, Segoe UI Emoji" font-size="20px" fill="#1e1e1e" text-anchor="middle" style="white-space: pre;" direction="ltr" dominant-baseline="text-before-edge">back to </text><text x="47.909942626953125" y="75" font-family="Virgil, Segoe UI Emoji" font-size="20px" fill="#1e1e1e" text-anchor="middle" style="white-space: pre;" direction="ltr" dominant-baseline="text-before-edge">user and </text><text x="47.909942626953125" y="100" font-family="Virgil, Segoe UI Emoji" font-size="20px" fill="#1e1e1e" text-anchor="middle" style="white-space: pre;" direction="ltr" dominant-baseline="text-before-edge">dismiss </text><text x="47.909942626953125" y="125" font-family="Virgil, Segoe UI Emoji" font-size="20px" fill="#1e1e1e" text-anchor="middle" style="white-space: pre;" direction="ltr" dominant-baseline="text-before-edge">review</text></g><g stroke-linecap="round"><g transform="translate(926.5 415.25) rotate(0 0 -44.75)"><path d="M-0.63 -0.91 C-0.72 -15.88, -0.75 -74.55, -0.44 -89.43 M1.23 1.23 C0.95 -13.57, -1.59 -72.78, -1.63 -87.85" stroke="#1e1e1e" stroke-width="2" fill="none"></path></g></g><mask></mask><g mask="url(#mask-EA6h_ceLQ3a1MZ8mdcxwB)" stroke-linecap="round"><g transform="translate(923 326.25) rotate(0 -101.75 -23.75)"><path d="M-0.85 0.57 C-34.12 0.98, -166.92 9.89, -200.7 1.63 C-234.47 -6.62, -203.09 -40.51, -203.49 -48.97 M0.91 -0.18 C-32.45 0.48, -167.55 11.46, -201.75 2.98 C-235.94 -5.5, -204.1 -42.57, -204.25 -51.04" stroke="#1e1e1e" stroke-width="2" fill="none"></path></g><g transform="translate(923 326.25) rotate(0 -101.75 -23.75)"><path d="M-205.55 -26.07 C-204.16 -31.71, -205.44 -36.7, -204.25 -51.04 M-205.55 -26.07 C-204.98 -34.28, -204.97 -42.76, -204.25 -51.04" stroke="#1e1e1e" stroke-width="2" fill="none"></path></g><g transform="translate(923 326.25) rotate(0 -101.75 -23.75)"><path d="M-221.3 -32.75 C-216.59 -36.86, -214.51 -40.42, -204.25 -51.04 M-221.3 -32.75 C-215.29 -38.71, -209.86 -44.9, -204.25 -51.04" stroke="#1e1e1e" stroke-width="2" fill="none"></path></g></g><mask id="mask-EA6h_ceLQ3a1MZ8mdcxwB"><rect x="0" y="0" fill="#fff" width="1226.5" height="477.75"></rect><rect x="697.0600204467773" y="315.75" fill="#000" width="50.87995910644531" height="25" opacity="1"></rect></mask><g transform="translate(697.0600204467773 315.75) rotate(0 117.60253695379413 -11.930750891742036)"><text x="25.439979553222656" y="0" font-family="Virgil, Segoe UI Emoji" font-size="20px" fill="#1e1e1e" text-anchor="middle" style="white-space: pre;" direction="ltr" dominant-baseline="text-before-edge">Admin</text></g><g stroke-linecap="round"><g transform="translate(927.5 321.25) rotate(0 113.75 -34)"><path d="M-0.89 0.8 C32.56 0.57, 161.77 9.51, 199.99 -1.89 C238.22 -13.29, 223.85 -56.73, 228.46 -67.6 M0.84 0.18 C34.29 0.12, 161.67 10.83, 199.56 -0.82 C237.45 -12.47, 223.47 -58.34, 228.19 -69.74" stroke="#1e1e1e" stroke-width="2" fill="none"></path></g><g transform="translate(927.5 321.25) rotate(0 113.75 -34)"><path d="M235.26 -45.76 C235.02 -49.85, 230.52 -55.61, 228.19 -69.74 M235.26 -45.76 C232.02 -52.75, 229.74 -61.07, 228.19 -69.74" stroke="#1e1e1e" stroke-width="2" fill="none"></path></g><g transform="translate(927.5 321.25) rotate(0 113.75 -34)"><path d="M218.19 -46.82 C222 -50.54, 221.56 -56.04, 228.19 -69.74 M218.19 -46.82 C220.64 -53.59, 224.04 -61.55, 228.19 -69.74" stroke="#1e1e1e" stroke-width="2" fill="none"></path></g></g><mask></mask><g stroke-linecap="round" transform="translate(1060 169) rotate(0 92.5 41.75)"><path d="M20.88 0 C61.14 1.3, 96.79 1.15, 164.13 0 M20.88 0 C58.27 -0.51, 94.82 -0.87, 164.13 0 M164.13 0 C178.41 1.42, 183.64 5.26, 185 20.88 M164.13 0 C178.22 0.72, 186.27 5.1, 185 20.88 M185 20.88 C184.56 35.48, 185.43 50.81, 185 62.63 M185 20.88 C186 30.06, 185.76 39.34, 185 62.63 M185 62.63 C183.88 77.74, 177.2 84.05, 164.13 83.5 M185 62.63 C183.22 76.4, 176.97 84.8, 164.13 83.5 M164.13 83.5 C119.78 84.41, 80.07 81.84, 20.88 83.5 M164.13 83.5 C131.08 83.53, 97.79 82.79, 20.88 83.5 M20.88 83.5 C5.41 84, -1.89 78.34, 0 62.63 M20.88 83.5 C6.71 82.43, 1.7 74.96, 0 62.63 M0 62.63 C0.5 54.37, 0.02 44.55, 0 20.88 M0 62.63 C0.9 51.56, 0.09 40.6, 0 20.88 M0 20.88 C-1.54 8.1, 6.42 0.82, 20.88 0 M0 20.88 C-1.67 4.79, 5.87 0.04, 20.88 0" stroke="#1e1e1e" stroke-width="2" fill="none"></path></g><g transform="translate(1119.3100357055664 198.25) rotate(0 33.189964294433594 12.5)"><text x="33.189964294433594" y="0" font-family="Virgil, Segoe UI Emoji" font-size="20px" fill="#1e1e1e" text-anchor="middle" style="white-space: pre;" direction="ltr" dominant-baseline="text-before-edge">Events</text></g><g stroke-linecap="round" transform="translate(1064 10) rotate(0 92.5 41.75)"><path d="M20.88 0 C62.7 -0.96, 106.71 2.17, 164.13 0 M20.88 0 C73.23 0.29, 126.45 -0.51, 164.13 0 M164.13 0 C179.98 -1.53, 184.99 5.23, 185 20.88 M164.13 0 C178.03 -0.49, 182.72 9, 185 20.88 M185 20.88 C185.46 36.97, 185.97 54.29, 185 62.63 M185 20.88 C184.44 33.75, 185 46.81, 185 62.63 M185 62.63 C186.44 75.06, 177.64 84.83, 164.13 83.5 M185 62.63 C185.28 74.25, 176.25 83.39, 164.13 83.5 M164.13 83.5 C107.34 85.64, 53.44 85.6, 20.88 83.5 M164.13 83.5 C134.85 84.32, 104.33 84.23, 20.88 83.5 M20.88 83.5 C8.01 82.88, -1.89 76.5, 0 62.63 M20.88 83.5 C7.77 81.86, -0.87 76.75, 0 62.63 M0 62.63 C-1.52 45.76, -0.38 31.31, 0 20.88 M0 62.63 C0.03 46.66, 0.28 29.71, 0 20.88 M0 20.88 C-1.65 8.69, 8.07 -1.74, 20.88 0 M0 20.88 C-1.06 5.47, 5.05 -0.87, 20.88 0" stroke="#1e1e1e" stroke-width="2" fill="none"></path></g><g transform="translate(1072.6100997924805 26.75) rotate(0 83.88990020751953 25)"><text x="83.88990020751953" y="0" font-family="Virgil, Segoe UI Emoji" font-size="20px" fill="#1e1e1e" text-anchor="middle" style="white-space: pre;" direction="ltr" dominant-baseline="text-before-edge">View event </text><text x="83.88990020751953" y="25" font-family="Virgil, Segoe UI Emoji" font-size="20px" fill="#1e1e1e" text-anchor="middle" style="white-space: pre;" direction="ltr" dominant-baseline="text-before-edge">detqils &amp; reviews</text></g><g stroke-linecap="round"><g transform="translate(1155.5 163.25) rotate(0 0.5 -35)"><path d="M-0.94 1.2 C-0.58 -10.25, 1.33 -57.65, 1.61 -69.44 M0.76 0.78 C1.07 -10.95, 1.13 -59.19, 0.98 -71.26" stroke="#1e1e1e" stroke-width="2" fill="none"></path></g><g transform="translate(1155.5 163.25) rotate(0 0.5 -35)"><path d="M9.63 -47.81 C9.61 -52.75, 6.38 -60.11, 0.98 -71.26 M9.63 -47.81 C6.68 -56.47, 3.62 -63.96, 0.98 -71.26" stroke="#1e1e1e" stroke-width="2" fill="none"></path></g><g transform="translate(1155.5 163.25) rotate(0 0.5 -35)"><path d="M-7.47 -47.73 C-3.21 -52.56, -2.14 -59.93, 0.98 -71.26 M-7.47 -47.73 C-4.65 -56.56, -1.92 -64.08, 0.98 -71.26" stroke="#1e1e1e" stroke-width="2" fill="none"></path></g></g><mask></mask><g stroke-linecap="round"><g transform="translate(731 185.75) rotate(0 -0.5 -43.75)"><path d="M-0.66 -1.14 C-0.59 -15.74, 0.15 -73.35, 0.09 -87.77 M1.19 0.87 C1.24 -13.52, 0.21 -71.82, -0.29 -86.37" stroke="#1e1e1e" stroke-width="2" fill="none"></path></g><g transform="translate(731 185.75) rotate(0 -0.5 -43.75)"><path d="M8.83 -63.09 C4.5 -67.62, 3.49 -75.76, -0.29 -86.37 M8.83 -63.09 C7.02 -70.42, 3.54 -76.45, -0.29 -86.37" stroke="#1e1e1e" stroke-width="2" fill="none"></path></g><g transform="translate(731 185.75) rotate(0 -0.5 -43.75)"><path d="M-8.27 -62.68 C-7.97 -67.23, -4.36 -75.48, -0.29 -86.37 M-8.27 -62.68 C-5.16 -70.21, -3.71 -76.36, -0.29 -86.37" stroke="#1e1e1e" stroke-width="2" fill="none"></path></g></g><mask></mask><g stroke-linecap="round" transform="translate(634 10.75) rotate(0 97.25 44.5)"><path d="M22.25 0 C65.43 -1.66, 103.3 1.2, 172.25 0 M22.25 0 C67.33 -0.91, 111.25 -0.89, 172.25 0 M172.25 0 C186.07 1.4, 195.87 6.6, 194.5 22.25 M172.25 0 C187.37 -2.06, 195.39 6.91, 194.5 22.25 M194.5 22.25 C193.14 40.16, 194.31 56.82, 194.5 66.75 M194.5 22.25 C195.73 33.88, 193.82 45.55, 194.5 66.75 M194.5 66.75 C195.17 82, 188.49 88.4, 172.25 89 M194.5 66.75 C194.74 82.97, 187.88 88.31, 172.25 89 M172.25 89 C117.08 90.38, 60.89 88.57, 22.25 89 M172.25 89 C132.74 88.86, 96.14 87.84, 22.25 89 M22.25 89 C7.99 87.61, -1.86 80.2, 0 66.75 M22.25 89 C7.79 89.42, 1.83 81.01, 0 66.75 M0 66.75 C-1.52 50.91, -0.44 35.91, 0 22.25 M0 66.75 C1.25 49.38, -0.5 33.41, 0 22.25 M0 22.25 C-1.83 6.45, 5.94 -0.17, 22.25 0 M0 22.25 C-0.94 7.96, 9.5 0.4, 22.25 0" stroke="#1e1e1e" stroke-width="2" fill="none"></path></g><g transform="translate(666.3400726318359 42.75) rotate(0 64.90992736816406 12.5)"><text x="64.90992736816406" y="0" font-family="Virgil, Segoe UI Emoji" font-size="20px" fill="#1e1e1e" text-anchor="middle" style="white-space: pre;" direction="ltr" dominant-baseline="text-before-edge">Approval flow</text></g><g stroke-linecap="round" transform="translate(1727.5 799.75) rotate(0 52.5 55)"><path d="M26.25 0 C43.81 -2.39, 62.21 -0.99, 78.75 0 M26.25 0 C48.08 -1.08, 67.6 -0.8, 78.75 0 M78.75 0 C96.36 -0.03, 105.33 9.11, 105 26.25 M78.75 0 C96.54 1.51, 106.8 6.62, 105 26.25 M105 26.25 C105.86 39.54, 103.34 50.21, 105 83.75 M105 26.25 C104.99 42.68, 105.26 60.05, 105 83.75 M105 83.75 C106.35 102.89, 97.97 110.6, 78.75 110 M105 83.75 C103.7 101.79, 96.79 111.71, 78.75 110 M78.75 110 C65.04 109.01, 50.31 109.85, 26.25 110 M78.75 110 C66.13 109.91, 53.25 109.86, 26.25 110 M26.25 110 C8.17 108.59, 1.58 102.79, 0 83.75 M26.25 110 C10.02 110.61, -0.02 99.44, 0 83.75 M0 83.75 C-0.23 70.34, -1.65 56.09, 0 26.25 M0 83.75 C0.62 68.02, -0.68 52.42, 0 26.25 M0 26.25 C-1.81 10.49, 7.54 -1.48, 26.25 0 M0 26.25 C1.08 7.81, 10.3 -1.36, 26.25 0" stroke="#1e1e1e" stroke-width="2" fill="none"></path></g><g transform="translate(1742.2100448608398 804.75) rotate(0 37.789955139160156 50)"><text x="37.789955139160156" y="0" font-family="Virgil, Segoe UI Emoji" font-size="20px" fill="#1e1e1e" text-anchor="middle" style="white-space: pre;" direction="ltr" dominant-baseline="text-before-edge">Creqte </text><text x="37.789955139160156" y="25" font-family="Virgil, Segoe UI Emoji" font-size="20px" fill="#1e1e1e" text-anchor="middle" style="white-space: pre;" direction="ltr" dominant-baseline="text-before-edge">review </text><text x="37.789955139160156" y="50" font-family="Virgil, Segoe UI Emoji" font-size="20px" fill="#1e1e1e" text-anchor="middle" style="white-space: pre;" direction="ltr" dominant-baseline="text-before-edge">and </text><text x="37.789955139160156" y="75" font-family="Virgil, Segoe UI Emoji" font-size="20px" fill="#1e1e1e" text-anchor="middle" style="white-space: pre;" direction="ltr" dominant-baseline="text-before-edge">event</text></g><g stroke-linecap="round"><g transform="translate(958.5 812.75) rotate(0 137.5 0.75)"><path d="M-0.7 -1.09 C44.81 -0.57, 228.09 2.26, 273.91 2.54 M1.14 0.94 C46.93 1.21, 230.11 0.88, 276.06 0.97" stroke="#1e1e1e" stroke-width="2" fill="none"></path></g><g transform="translate(958.5 812.75) rotate(0 137.5 0.75)"><path d="M252.56 9.52 C259.52 4.66, 271.83 2.08, 276.06 0.97 M252.56 9.52 C258.5 7.09, 263.38 5.53, 276.06 0.97" stroke="#1e1e1e" stroke-width="2" fill="none"></path></g><g transform="translate(958.5 812.75) rotate(0 137.5 0.75)"><path d="M252.56 -7.58 C259.43 -6.08, 271.74 -2.3, 276.06 0.97 M252.56 -7.58 C258.58 -6.15, 263.46 -3.85, 276.06 0.97" stroke="#1e1e1e" stroke-width="2" fill="none"></path></g></g><mask></mask><g stroke-linecap="round"><g transform="translate(1835 840.25) rotate(0 76.5 1.25)"><path d="M1.12 0.28 C26.48 0.66, 127.79 1.27, 153.24 1.74 M0.25 -0.62 C25.38 -0.05, 126.88 2.6, 152.42 2.88" stroke="#1e1e1e" stroke-width="2" fill="none"></path></g><g transform="translate(1835 840.25) rotate(0 76.5 1.25)"><path d="M128.76 10.97 C138.48 8, 145.98 5.84, 152.42 2.88 M128.76 10.97 C137.51 8.91, 145.14 4.36, 152.42 2.88" stroke="#1e1e1e" stroke-width="2" fill="none"></path></g><g transform="translate(1835 840.25) rotate(0 76.5 1.25)"><path d="M129.1 -6.13 C138.61 -2.43, 145.97 2.07, 152.42 2.88 M129.1 -6.13 C137.64 -2.21, 145.15 -0.78, 152.42 2.88" stroke="#1e1e1e" stroke-width="2" fill="none"></path></g></g><mask></mask><g stroke-linecap="round"><g transform="translate(1250.5 54.38568730733505) rotate(0.4217236602774453 51.75 219.93215634633248)"><path d="M-1.06 0.12 C16.43 0.41, 93.47 -70.72, 104.61 2.67 C115.74 76.06, 72.17 367.57, 65.75 440.45 M0.58 -0.86 C18.05 -1, 93.49 -72.3, 104.24 0.91 C115 74.13, 71.38 365.05, 65.11 438.42" stroke="#1e1e1e" stroke-width="2" fill="none"></path></g><g transform="translate(1250.5 54.38568730733505) rotate(0.4217236602774453 51.75 219.93215634633248)"><path d="M59.35 414.09 C61.3 422.56, 63.81 427.69, 65.11 438.42 M59.35 414.09 C60.94 423.44, 64.06 431.99, 65.11 438.42" stroke="#1e1e1e" stroke-width="2" fill="none"></path></g><g transform="translate(1250.5 54.38568730733505) rotate(0.4217236602774453 51.75 219.93215634633248)"><path d="M76.34 416.09 C73.68 423.86, 71.61 428.46, 65.11 438.42 M76.34 416.09 C71.98 424.75, 69.18 432.6, 65.11 438.42" stroke="#1e1e1e" stroke-width="2" fill="none"></path></g></g><mask></mask><g stroke-linecap="round" transform="translate(1536 780.75) rotate(0 71.75 60)"><path d="M90 15.25 C101.54 22.43, 111.66 30.64, 125.5 45.75 M90 15.25 C102.22 25.14, 112.67 35.93, 125.5 45.75 M125.5 45.75 C144.65 62.24, 141.59 62.36, 125.5 76.25 M125.5 45.75 C142.17 59.62, 144.77 60.68, 125.5 76.25 M125.5 76.25 C111.15 88.7, 97.97 101.1, 90 104.75 M125.5 76.25 C115.12 83.36, 106.31 91.36, 90 104.75 M90 104.75 C73.99 118.61, 72.46 121.39, 54 104.75 M90 104.75 C70.31 120.67, 71.86 120.5, 54 104.75 M54 104.75 C42.51 95.8, 30.1 86.96, 18 76.25 M54 104.75 C42.59 95.04, 29.36 85.32, 18 76.25 M18 76.25 C-1.62 59.97, 0.95 59.9, 18 45.75 M18 76.25 C0.85 60.06, 1.16 59.33, 18 45.75 M18 45.75 C25.62 37.93, 33.18 33.15, 54 15.25 M18 45.75 C32.83 34.42, 46.93 22.55, 54 15.25 M54 15.25 C70.97 -1.02, 73.63 0.66, 90 15.25 M54 15.25 C70.65 -0.42, 70.9 1.67, 90 15.25" stroke="#1e1e1e" stroke-width="2" fill="none"></path></g><g transform="translate(1580.1150283813477 815.75) rotate(0 27.759971618652344 25)"><text x="27.759971618652344" y="0" font-family="Virgil, Segoe UI Emoji" font-size="20px" fill="#1e1e1e" text-anchor="middle" style="white-space: pre;" direction="ltr" dominant-baseline="text-before-edge">Event</text><text x="27.759971618652344" y="25" font-family="Virgil, Segoe UI Emoji" font-size="20px" fill="#1e1e1e" text-anchor="middle" style="white-space: pre;" direction="ltr" dominant-baseline="text-before-edge">?</text></g><g stroke-linecap="round"><g transform="translate(1675.9378546228795 839.25) rotate(0 27.781072688560243 0.75)"><path d="M-0.85 1.11 C8.39 1.67, 46.63 2.64, 55.9 2.54 M0.91 0.64 C9.97 0.96, 45.74 0.86, 55.13 0.96" stroke="#1e1e1e" stroke-width="2" fill="none"></path></g><g transform="translate(1675.9378546228795 839.25) rotate(0 27.781072688560243 0.75)"><path d="M31.6 9.42 C41.55 7.26, 49.48 2.47, 55.13 0.96 M31.6 9.42 C36.15 6.6, 42.26 6.02, 55.13 0.96" stroke="#1e1e1e" stroke-width="2" fill="none"></path></g><g transform="translate(1675.9378546228795 839.25) rotate(0 27.781072688560243 0.75)"><path d="M31.67 -7.68 C41.47 -4, 49.39 -2.93, 55.13 0.96 M31.67 -7.68 C36.3 -6.82, 42.39 -3.73, 55.13 0.96" stroke="#1e1e1e" stroke-width="2" fill="none"></path></g></g><mask></mask><g transform="translate(1674.5 807.25) rotate(0 11.979988098144531 12.5)"><text x="0" y="0" font-family="Virgil, Segoe UI Emoji" font-size="20px" fill="#1e1e1e" text-anchor="start" style="white-space: pre;" direction="ltr" dominant-baseline="text-before-edge">No</text></g><g stroke-linecap="round"><g transform="translate(1607 898.75) rotate(0 37.5 55.25)"><path d="M-0.32 -0.69 C0.11 16.01, -10.06 82.28, 2.42 100.75 C14.9 119.22, 62.55 108.57, 74.54 110.13 M1.71 1.56 C2 18.36, -10.54 83.61, 1.43 101.9 C13.4 120.18, 61.39 109.74, 73.53 111.25" stroke="#1e1e1e" stroke-width="2" fill="none"></path></g><g transform="translate(1607 898.75) rotate(0 37.5 55.25)"><path d="M50.41 120.76 C55.77 117.99, 62.23 114.67, 73.53 111.25 M50.41 120.76 C56.05 118.1, 62.99 114.9, 73.53 111.25" stroke="#1e1e1e" stroke-width="2" fill="none"></path></g><g transform="translate(1607 898.75) rotate(0 37.5 55.25)"><path d="M49.71 103.67 C55.34 105.75, 62 107.27, 73.53 111.25 M49.71 103.67 C55.45 105.61, 62.58 107.01, 73.53 111.25" stroke="#1e1e1e" stroke-width="2" fill="none"></path></g></g><mask></mask><g stroke-linecap="round" transform="translate(1680 978.25) rotate(0 38.75 55)"><path d="M19.38 0 C30.88 1.23, 40.62 1.45, 58.13 0 M19.38 0 C28.38 -0.8, 35.75 0.34, 58.13 0 M58.13 0 C69.76 1.37, 75.68 7.47, 77.5 19.38 M58.13 0 C71.26 1.85, 76.23 4.95, 77.5 19.38 M77.5 19.38 C76.7 34.17, 77.45 51.76, 77.5 90.63 M77.5 19.38 C77.74 45.1, 76.79 71.34, 77.5 90.63 M77.5 90.63 C76.35 102.16, 69.71 109.96, 58.13 110 M77.5 90.63 C78.01 105.62, 68.92 110.93, 58.13 110 M58.13 110 C44.46 108.08, 31.08 110.75, 19.38 110 M58.13 110 C49.19 109.21, 41.75 108.93, 19.38 110 M19.38 110 C5.42 110.53, 1.39 103.08, 0 90.63 M19.38 110 C7.96 108.66, 1.01 105.57, 0 90.63 M0 90.63 C-0.09 74.08, 0.4 57.9, 0 19.38 M0 90.63 C1.14 65.02, 0.31 41.45, 0 19.38 M0 19.38 C-0.03 4.47, 7.6 -1.74, 19.38 0 M0 19.38 C-0.52 7.17, 8.72 0.93, 19.38 0" stroke="#1e1e1e" stroke-width="2" fill="none"></path></g><g transform="translate(1685.0000381469727 983.25) rotate(0 33.749961853027344 50)"><text x="33.749961853027344" y="0" font-family="Virgil, Segoe UI Emoji" font-size="20px" fill="#1e1e1e" text-anchor="middle" style="white-space: pre;" direction="ltr" dominant-baseline="text-before-edge">Add </text><text x="33.749961853027344" y="25" font-family="Virgil, Segoe UI Emoji" font-size="20px" fill="#1e1e1e" text-anchor="middle" style="white-space: pre;" direction="ltr" dominant-baseline="text-before-edge">review </text><text x="33.749961853027344" y="50" font-family="Virgil, Segoe UI Emoji" font-size="20px" fill="#1e1e1e" text-anchor="middle" style="white-space: pre;" direction="ltr" dominant-baseline="text-before-edge">to </text><text x="33.749961853027344" y="75" font-family="Virgil, Segoe UI Emoji" font-size="20px" fill="#1e1e1e" text-anchor="middle" style="white-space: pre;" direction="ltr" dominant-baseline="text-before-edge">event</text></g><g stroke-linecap="round"><g transform="translate(1753.5 1011.75) rotate(0 157.5 -58.5)"><path d="M-0.22 0.15 C48.56 0.34, 241.35 21.34, 293.87 1.38 C346.38 -18.58, 311.43 -99.33, 314.89 -119.61 M-1.8 -0.81 C47.28 -0.55, 243.6 21.92, 296.24 2.33 C348.89 -17.26, 311 -98.03, 314.06 -118.36" stroke="#1e1e1e" stroke-width="2" fill="none"></path></g><g transform="translate(1753.5 1011.75) rotate(0 157.5 -58.5)"><path d="M326.04 -96.41 C321.47 -106.24, 314.57 -114.12, 314.06 -118.36 M326.04 -96.41 C322.11 -103.72, 319.29 -109.59, 314.06 -118.36" stroke="#1e1e1e" stroke-width="2" fill="none"></path></g><g transform="translate(1753.5 1011.75) rotate(0 157.5 -58.5)"><path d="M309.13 -93.85 C311.29 -104.67, 311.14 -113.57, 314.06 -118.36 M309.13 -93.85 C310.13 -101.79, 312.22 -108.4, 314.06 -118.36" stroke="#1e1e1e" stroke-width="2" fill="none"></path></g></g><mask></mask><g transform="translate(1623.5 932.75) rotate(0 16.059982299804688 12.5)"><text x="0" y="0" font-family="Virgil, Segoe UI Emoji" font-size="20px" fill="#1e1e1e" text-anchor="start" style="white-space: pre;" direction="ltr" dominant-baseline="text-before-edge">Yes</text></g><g stroke-linecap="round"><g transform="translate(1304.5 588.25) rotate(0 5 77.5)"><path d="M0.34 -1.01 C2.18 24.43, 8.27 127.73, 9.92 153.82 M-0.93 1.08 C0.84 27.12, 7.18 129.34, 8.93 154.74" stroke="#1e1e1e" stroke-width="2" fill="none"></path></g><g transform="translate(1304.5 588.25) rotate(0 5 77.5)"><path d="M-1.13 131.85 C-0.48 136.46, 1.32 141.75, 8.93 154.74 M-1.13 131.85 C2.33 140.17, 6.06 148.32, 8.93 154.74" stroke="#1e1e1e" stroke-width="2" fill="none"></path></g><g transform="translate(1304.5 588.25) rotate(0 5 77.5)"><path d="M15.94 130.74 C13.04 135.63, 11.29 141.15, 8.93 154.74 M15.94 130.74 C13.53 139.44, 11.38 147.97, 8.93 154.74" stroke="#1e1e1e" stroke-width="2" fill="none"></path></g></g><mask></mask></svg>